# xmcd
#
# Track frame offsets: 
#        150
#        49068
#        83835
#        133083
#
# Disc length: 2608 seconds
#
# Revision: 1
# Processed by: cddbd v1.5.2PL0 Copyright (c) Steve Scherf et al.
# Submitted via: ExactAudioCopy v0.99pb5
#
DISCID=2e0a2e04
DTITLE=Chet Baker, Harold Danko, Hein van de Geyn, John Engels - One N
DTITLE=ight in Tokyo (87.6.14) (Immortal) [CD1)
DYEAR=1987
DGENRE=Jazz
TTITLE0=Stella By Starlight <N. Washington, V. Young>
TTITLE1=For Minors Only <J. Heath>
TTITLE2=You'd be so Nice <C. Porter>
TTITLE3=Arborway <R. Pantoja>
EXTD=YEAR: 1987
EXTT0=
EXTT1=
EXTT2=
EXTT3=
PLAYORDER=
